<svg width="602" height="206"  fill="none" xmlns="http://www.w3.org/2000/svg">
<path d="M9.216 34.088H36.096C46.592 34.088 54.528 36.3493 59.904 40.872C65.28 45.3093 67.968 51.112 67.968 58.28C67.968 68.008 64.768 75.0907 58.368 79.528C52.0533 83.9653 43.5627 86.184 32.896 86.184C30.08 86.184 27.264 86.056 24.448 85.8V114.6L34.176 115.368C34.5173 119.123 33.3227 121 30.592 121H5.376C5.376 121 5.376 120.659 5.376 119.976C5.376 117.757 5.97333 116.307 7.168 115.624C7.76533 115.368 8.49067 115.197 9.344 115.112L15.232 114.856V40.488L5.888 39.72C5.632 35.9653 6.74133 34.088 9.216 34.088ZM31.744 80.168C49.3227 80.168 58.112 73.384 58.112 59.816C58.112 45.3947 49.1947 38.7387 31.36 39.848L24.448 40.232V79.912C26.1547 80.0827 28.5867 80.168 31.744 80.168Z" fill="black"/>
<path d="M253.384 121H229.192V119.976C229.192 117.928 229.789 116.648 230.984 116.136C231.581 115.795 232.307 115.581 233.16 115.496L238.408 115.24V83.24C238.408 70.7813 233.373 64.552 223.304 64.552C219.805 64.552 216.733 65.32 214.088 66.856C211.443 68.3067 208.541 70.4827 205.384 73.384C206.152 75.7733 206.536 78.8027 206.536 82.472V114.984L216.136 115.752C216.477 119.251 215.325 121 212.68 121H188.36V119.976C188.36 117.928 188.957 116.648 190.152 116.136C190.749 115.795 191.475 115.581 192.328 115.496L197.576 115.24V83.24C197.576 77.096 196.211 72.4453 193.48 69.288C190.835 66.1307 187.123 64.552 182.344 64.552C179.016 64.552 176.072 65.2347 173.512 66.6C170.952 67.9653 168.221 69.9707 165.32 72.616V114.984L175.048 115.752C175.389 119.251 174.195 121 171.464 121H147.144V119.976C147.144 117.928 147.741 116.648 148.936 116.136C149.533 115.795 150.259 115.581 151.112 115.496L156.488 115.24V64.424L150.856 64.296C148.125 64.296 146.76 62.4613 146.76 58.792L163.272 56.616L164.808 65.576H165.192C170.909 59.5173 177.309 56.488 184.392 56.488C188.232 56.488 191.901 57.4267 195.4 59.304C198.899 61.1813 201.587 64.1253 203.464 68.136C206.451 64.6373 209.608 61.8213 212.936 59.688C216.349 57.5547 220.744 56.488 226.12 56.488C231.496 56.488 236.36 58.5787 240.712 62.76C245.064 66.9413 247.24 73.512 247.24 82.472V114.984L256.968 115.752C257.309 119.251 256.115 121 253.384 121ZM292.64 63.144C286.837 63.144 282.357 65.6613 279.2 70.696C276.043 75.7307 274.464 82.1733 274.464 90.024C274.464 97.7893 276 104.147 279.072 109.096C282.144 113.96 286.581 116.392 292.384 116.392C298.187 116.307 302.667 113.832 305.824 108.968C308.981 104.104 310.56 97.832 310.56 90.152C310.56 82.3867 309.024 75.944 305.952 70.824C302.965 65.6187 298.528 63.0587 292.64 63.144ZM293.408 56.488C299.893 56.488 305.739 58.536 310.944 62.632C313.675 64.8507 315.851 68.0933 317.472 72.36C319.179 76.6267 320.032 81.7467 320.032 87.72C320.203 98.3013 317.728 106.835 312.608 113.32C307.488 119.72 300.576 122.92 291.872 122.92C283.168 122.92 276.555 120.189 272.032 114.728C267.509 109.267 265.163 101.373 264.992 91.048C264.907 80.7227 267.424 72.4027 272.544 66.088C277.749 59.688 284.704 56.488 293.408 56.488ZM384.52 122.92C378.888 122.92 375.859 119.805 375.432 113.576C369.203 119.805 362.504 122.92 355.336 122.92C348.168 122.92 342.195 120.317 337.416 115.112C332.723 109.821 330.248 101.971 329.992 91.56C329.736 81.064 332.296 72.616 337.672 66.216C343.133 59.7307 350.728 56.488 360.456 56.488C365.661 56.488 370.611 57.5973 375.304 59.816V40.232L368.648 39.464C366.6 39.2933 365.576 37.4587 365.576 33.96L384.136 31.656V115.88L392.328 116.904C392.157 120.915 389.555 122.92 384.52 122.92ZM375.304 69.672C370.696 65.4907 365.107 63.4 358.536 63.4C352.051 63.4 347.229 65.9173 344.072 70.952C341 75.9013 339.464 82.1307 339.464 89.64C339.464 97.1493 341 103.336 344.072 108.2C347.144 112.979 351.837 115.368 358.152 115.368C361.309 115.368 364.125 114.728 366.6 113.448C369.075 112.168 371.976 110.12 375.304 107.304V69.672ZM427.265 63.144C421.462 63.144 416.982 65.6613 413.825 70.696C410.668 75.7307 409.089 82.1733 409.089 90.024C409.089 97.7893 410.625 104.147 413.697 109.096C416.769 113.96 421.206 116.392 427.009 116.392C432.812 116.307 437.292 113.832 440.449 108.968C443.606 104.104 445.185 97.832 445.185 90.152C445.185 82.3867 443.649 75.944 440.577 70.824C437.59 65.6187 433.153 63.0587 427.265 63.144ZM428.033 56.488C434.518 56.488 440.364 58.536 445.569 62.632C448.3 64.8507 450.476 68.0933 452.097 72.36C453.804 76.6267 454.657 81.7467 454.657 87.72C454.828 98.3013 452.353 106.835 447.233 113.32C442.113 119.72 435.201 122.92 426.497 122.92C417.793 122.92 411.18 120.189 406.657 114.728C402.134 109.267 399.788 101.373 399.617 91.048C399.532 80.7227 402.049 72.4027 407.169 66.088C412.374 59.688 419.329 56.488 428.033 56.488ZM483.945 66.856C486.505 64.1253 489.662 61.736 493.417 59.688C497.257 57.5547 500.372 56.488 502.761 56.488C505.236 56.488 507.241 57.0853 508.777 58.28C510.313 59.3893 511.081 61.1813 511.081 63.656C511.081 68.0933 510.356 71.1227 508.905 72.744C507.796 73.6827 506.046 74.0667 503.657 73.896C503.657 67.752 502.036 64.68 498.793 64.68C494.697 64.68 489.748 67.5813 483.945 73.384V114.984L494.953 115.752C495.294 119.251 494.1 121 491.369 121H465.769V119.976C465.769 117.928 466.366 116.648 467.561 116.136C468.158 115.795 468.884 115.581 469.737 115.496L475.113 115.24V65.192L468.201 64.424C466.324 64.2533 465.385 62.504 465.385 59.176L482.665 57L483.561 66.856H483.945Z" fill="black"/>
<path d="M544.265 63.144C538.462 63.144 533.982 65.6613 530.825 70.696C527.668 75.7307 526.089 82.1733 526.089 90.024C526.089 97.7893 527.625 104.147 530.697 109.096C533.769 113.96 538.206 116.392 544.009 116.392C549.812 116.307 554.292 113.832 557.449 108.968C560.606 104.104 562.185 97.832 562.185 90.152C562.185 82.3867 560.649 75.944 557.577 70.824C554.59 65.6187 550.153 63.0587 544.265 63.144ZM545.033 56.488C551.518 56.488 557.364 58.536 562.569 62.632C565.3 64.8507 567.476 68.0933 569.097 72.36C570.804 76.6267 571.657 81.7467 571.657 87.72C571.828 98.3013 569.353 106.835 564.233 113.32C559.113 119.72 552.201 122.92 543.497 122.92C534.793 122.92 528.18 120.189 523.657 114.728C519.134 109.267 516.788 101.373 516.617 91.048C516.532 80.7227 519.049 72.4027 524.169 66.088C529.374 59.688 536.329 56.488 545.033 56.488Z" fill="#EF0A0A"/>
<path d="M529 49.5315C535.559 53.6815 537.087 51.8375 543.348 49.5315L544.652 45.7203C533.962 48.5289 531.527 49.108 529 49.5315Z" fill="#51A31F"/>
<path d="M548.565 45.7203L547.261 49.5315C557.728 50.2138 558.402 48.1541 559 44.1958C555.844 46.0085 555.201 46.8737 548.565 45.7203Z" fill="#51A31F"/>
<path d="M544.652 45.7203L543.348 49.5315H547.261L548.565 45.7203C548.934 40.4396 548.343 37.4238 546.609 32C545.66 33.6975 545.168 34.7073 543.348 35.049C545.223 37.538 545.686 39.6562 544.652 45.7203Z" fill="#51A31F"/>
<path d="M543.348 49.5315C537.087 51.8375 535.559 53.6815 529 49.5315C531.527 49.108 533.962 48.5289 544.652 45.7203M543.348 49.5315L544.652 45.7203M543.348 49.5315H547.261M544.652 45.7203C545.686 39.6562 545.223 37.538 543.348 35.049C545.168 34.7073 545.66 33.6975 546.609 32C548.343 37.4238 548.934 40.4396 548.565 45.7203M547.261 49.5315L548.565 45.7203M547.261 49.5315C557.728 50.2138 558.402 48.1541 559 44.1958C555.844 46.0085 555.201 46.8737 548.565 45.7203" stroke="#51A31F"/>
<path d="M414.432 152.648V171.464C414.432 173.853 414.688 175.581 415.2 176.648C415.755 177.715 416.779 178.248 418.272 178.248C419.808 178.248 421.088 178.077 422.112 177.736C423.136 177.395 424.395 176.627 425.888 175.432C426.656 175.645 427.04 176.285 427.04 177.352C427.04 178.419 425.995 179.464 423.904 180.488C421.856 181.512 419.872 182.024 417.952 182.024C414.965 182.024 412.896 181.171 411.744 179.464C410.592 177.757 410.016 175.283 410.016 172.04V152.648H405.344C405.216 150.685 405.835 149.704 407.2 149.704H410.016V142.088L414.432 141V149.704H426.4C426.528 151.112 426.208 152.093 425.44 152.648H414.432ZM443.17 181H431.01V180.488C431.01 179.464 431.308 178.824 431.906 178.568C432.204 178.397 432.567 178.291 432.994 178.248L435.682 178.12V152.776L432.354 152.52C431.33 152.392 430.818 151.475 430.818 149.768L440.098 148.744V177.992L444.962 178.376C445.132 180.125 444.535 181 443.17 181ZM439.65 142.92C439.052 143.475 438.284 143.752 437.345 143.752C436.407 143.752 435.639 143.475 435.042 142.92C434.487 142.323 434.21 141.555 434.21 140.616C434.21 139.677 434.487 138.909 435.042 138.312C435.639 137.715 436.407 137.416 437.345 137.416C438.284 137.416 439.052 137.715 439.65 138.312C440.247 138.909 440.546 139.677 440.546 140.616C440.546 141.555 440.247 142.323 439.65 142.92ZM502.755 181H490.659V180.488C490.659 179.464 490.957 178.824 491.555 178.568C491.853 178.397 492.216 178.291 492.643 178.248L495.267 178.12V162.12C495.267 155.891 492.749 152.776 487.715 152.776C485.965 152.776 484.429 153.16 483.107 153.928C481.784 154.653 480.333 155.741 478.755 157.192C479.139 158.387 479.331 159.901 479.331 161.736V177.992L484.131 178.376C484.301 180.125 483.725 181 482.403 181H470.243V180.488C470.243 179.464 470.541 178.824 471.139 178.568C471.437 178.397 471.8 178.291 472.227 178.248L474.851 178.12V162.12C474.851 159.048 474.168 156.723 472.803 155.144C471.48 153.565 469.624 152.776 467.235 152.776C465.571 152.776 464.099 153.117 462.819 153.8C461.539 154.483 460.173 155.485 458.723 156.808V177.992L463.587 178.376C463.757 180.125 463.16 181 461.795 181H449.635V180.488C449.635 179.464 449.933 178.824 450.531 178.568C450.829 178.397 451.192 178.291 451.619 178.248L454.307 178.12V152.712L451.491 152.648C450.125 152.648 449.443 151.731 449.443 149.896L457.699 148.808L458.467 153.288H458.659C461.517 150.259 464.717 148.744 468.259 148.744C470.179 148.744 472.013 149.213 473.763 150.152C475.512 151.091 476.856 152.563 477.795 154.568C479.288 152.819 480.867 151.411 482.531 150.344C484.237 149.277 486.435 148.744 489.123 148.744C491.811 148.744 494.243 149.789 496.419 151.88C498.595 153.971 499.683 157.256 499.683 161.736V177.992L504.547 178.376C504.717 180.125 504.12 181 502.755 181ZM533.583 164.168H513.487C513.444 164.595 513.423 165.256 513.423 166.152C513.423 169.779 514.191 172.723 515.727 174.984C517.263 177.203 519.652 178.312 522.895 178.312C526.137 178.312 529.231 177.16 532.175 174.856C532.687 175.283 532.943 175.816 532.943 176.456C532.943 177.651 531.769 178.867 529.423 180.104C527.119 181.341 524.516 181.96 521.615 181.96C517.647 181.96 514.468 180.659 512.079 178.056C509.732 175.453 508.559 171.485 508.559 166.152C508.559 160.819 509.967 156.595 512.783 153.48C515.599 150.323 518.927 148.744 522.767 148.744C526.607 148.744 529.38 149.96 531.087 152.392C532.793 154.824 533.625 157.725 533.583 161.096V164.168ZM528.911 161.288C528.911 158.429 528.356 156.168 527.247 154.504C526.137 152.797 524.516 151.944 522.383 151.944C520.292 151.944 518.5 152.776 517.007 154.44C515.513 156.104 514.468 158.387 513.871 161.288H528.911ZM547.723 153.928C549.003 152.563 550.581 151.368 552.458 150.344C554.379 149.277 555.936 148.744 557.131 148.744C558.368 148.744 559.371 149.043 560.139 149.64C560.907 150.195 561.291 151.091 561.291 152.328C561.291 154.547 560.928 156.061 560.203 156.872C559.648 157.341 558.773 157.533 557.579 157.448C557.579 154.376 556.768 152.84 555.147 152.84C553.099 152.84 550.624 154.291 547.723 157.192V177.992L553.227 178.376C553.397 180.125 552.8 181 551.435 181H538.635V180.488C538.635 179.464 538.933 178.824 539.531 178.568C539.829 178.397 540.192 178.291 540.619 178.248L543.307 178.12V153.096L539.851 152.712C538.912 152.627 538.443 151.752 538.443 150.088L547.083 149L547.531 153.928H547.723Z" fill="black"/>
<ellipse cx="108.261" cy="84.7351" rx="29.8604" ry="28.3532" fill="#D69E9E" fill-opacity="0.7"/>
<rect x="104.177" y="42.9126" width="8.35227" height="7.88312" rx="1" fill="#51A31F"/>
<path d="M144.417 86.5984C144.417 105.586 128.206 120.979 108.209 120.979C88.2112 120.979 72 105.586 72 86.5984C72 67.6102 88.2112 52.2173 108.209 52.2173C128.206 52.2173 144.417 67.6102 144.417 86.5984Z" fill="#D23030"/>
<path d="M89.0986 84.7349C89.0986 84.7349 86.847 83.2152 86.0897 83.7222C85.3992 84.1844 85.3992 85.2854 86.0897 85.7477C86.847 86.2546 89.0986 84.7349 89.0986 84.7349Z" fill="#F7F98C" stroke="#B08D15"/>
<path d="M108.144 102.93C108.144 102.93 106.543 105.068 107.077 105.787C107.564 106.443 108.723 106.443 109.21 105.787C109.744 105.068 108.144 102.93 108.144 102.93Z" fill="#F7F98C" stroke="#B08D15"/>
<path d="M91.5653 76.102C91.5653 76.102 90.4156 73.7169 89.4927 73.7964C88.6513 73.8688 88.0716 74.8224 88.4262 75.5505C88.8151 76.3491 91.5653 76.102 91.5653 76.102Z" fill="#F7F98C" stroke="#B08D15"/>
<path d="M98.5813 69.105C98.5813 69.105 98.8415 66.4936 98.0005 66.1243C97.2336 65.7876 96.2294 66.3382 96.1531 67.1371C96.0694 68.0133 98.5813 69.105 98.5813 69.105Z" fill="#F7F98C" stroke="#B08D15"/>
<path d="M108.261 66.54C108.261 66.54 109.862 64.4021 109.328 63.683C108.841 63.0273 107.681 63.0273 107.195 63.683C106.661 64.4021 108.261 66.54 108.261 66.54Z" fill="#F7F98C" stroke="#B08D15"/>
<path d="M124.955 75.9903C124.955 75.9903 127.705 76.2374 128.094 75.4388C128.449 74.7107 127.869 73.7572 127.027 73.6847C126.105 73.6052 124.955 75.9903 124.955 75.9903Z" fill="#F7F98C" stroke="#B08D15"/>
<path d="M127.423 84.7353C127.423 84.7353 129.675 86.255 130.432 85.748C131.123 85.2858 131.123 84.1848 130.432 83.7226C129.675 83.2156 127.423 84.7353 127.423 84.7353Z" fill="#F7F98C" stroke="#B08D15"/>
<path d="M91.5653 94.0737C91.5653 94.0737 88.8152 93.8265 88.4262 94.6251C88.0716 95.3532 88.6514 96.3068 89.4928 96.3792C90.4156 96.4587 91.5653 94.0737 91.5653 94.0737Z" fill="#F7F98C" stroke="#B08D15"/>
<path d="M98.8162 100.586C98.8162 100.586 96.3043 101.678 96.388 102.554C96.4644 103.353 97.4686 103.903 98.2354 103.567C99.0765 103.197 98.8162 100.586 98.8162 100.586Z" fill="#F7F98C" stroke="#B08D15"/>
<path d="M124.72 94.1856C124.72 94.1856 125.87 96.5707 126.792 96.4912C127.634 96.4187 128.214 95.4652 127.859 94.7371C127.47 93.9385 124.72 94.1856 124.72 94.1856Z" fill="#F7F98C" stroke="#B08D15"/>
<path d="M117.509 100.586C117.509 100.586 117.248 103.197 118.089 103.567C118.856 103.903 119.86 103.353 119.937 102.554C120.02 101.678 117.509 100.586 117.509 100.586Z" fill="#F7F98C" stroke="#B08D15"/>
<path d="M117.979 69.105C117.979 69.105 120.491 68.0133 120.407 67.137C120.331 66.3381 119.326 65.7876 118.56 66.1243C117.718 66.4936 117.979 69.105 117.979 69.105Z" fill="#F7F98C" stroke="#B08D15"/>
<path fill-rule="evenodd" clip-rule="evenodd" d="M126.884 84.909C126.884 74.8601 118.304 66.7139 107.721 66.7139V84.909H126.884Z" fill="#EF0A0A"/>
<path d="M107.721 103.104C118.304 103.104 126.884 94.958 126.884 84.909H107.721V66.7139C97.1381 66.7139 88.5588 74.8601 88.5588 84.909C88.5588 94.958 97.1381 103.104 107.721 103.104Z" fill="#ED7272"/>
<ellipse cx="106.898" cy="84.9087" rx="2.11609" ry="2.00928" fill="#FFFEFE"/>
<rect x="101.606" y="37" width="13.4921" height="4.35318" rx="2.17659" fill="#51A31F"/>
<rect x="106.898" y="84.5742" width="5.87804" height="0.781388" fill="#FFFEFE"/>
</svg>
